<?xml version="1.0" encoding="UTF-8"?>
<svg id="Layer_1" xmlns="http://www.w3.org/2000/svg" version="1.1" viewBox="0 0 458.54 448.18">
  <!-- Generator: Adobe Illustrator 30.2.1, SVG Export Plug-In . SVG Version: 2.1.1 Build 1)  -->
  <g id="VbqBfX">
    <g>
      <path d="M35.9,311.32c-4.41-4.41-4.88-11.26-.48-15.66l37.91-37.87c8.1-8.09,20.2-9.69,30.61-5.35,23.08-40.02,74.52-56.62,115.72-35.16,4,2,7.89,2.91,12.42,3.1l70.12.02c7.64,0,14.39,2.93,20.22,7.83l46.81-45.32c11.82-11.44,30.32-11.55,41.88-.42s11.6,29.4,1.22,42.13l-72.35,88.76c-5.09,6.25-12.29,9.65-20.44,9.65l-103.49-.02c-11.85,0-22.47,4.63-30.17,13.72,2.61,9.65.36,20.01-6.83,27.21l-37.2,37.26c-4.32,4.33-11.23,4.8-15.71.33l-90.23-90.21ZM212.88,232.48c-15.54-7.98-32.62-10.06-49.43-5.68-19.71,5.14-36.63,18.02-46.28,36.39l59.21,59.19c9.09-9.39,20.86-15.86,34.03-15.88l108.65-.13c3.15-.1,5.84-.88,7.83-3.33l72.87-89.64c4.73-5.82,5.33-13.47-.25-18.82-5.24-5.03-13.22-4.87-18.67.4l-49.53,47.89c2.24,9.25.32,18.65-5.75,26.15-5.21,6.44-13.52,10.98-22.61,10.98h-67.42c-4.87.01-8.32-4.25-8.11-8.69s3.67-7.93,8.37-7.93h66.45c7.44,0,13.09-5.45,13.38-12.82.24-6.14-4.84-13.25-12.09-13.29l-73.38-.37c-6.06-.03-11.76-1.62-17.25-4.45ZM166.87,352.5c4.68-4.68,4.41-11.54.04-16.06l-66.73-66.73c-4.2-3.64-10.85-4.2-14.98-.07l-33.71,33.67,82.3,82.29,33.09-33.1Z"/>
      <path d="M274.26,177.99l-32.38,17.03c-5.46,2.87-11.33,2.96-16.52-.61-4.54-3.12-7.53-8.83-6.49-14.91l6.32-37.18-26.38-25.67c-4.33-4.22-6.09-9.93-4.26-15.95,1.47-4.83,5.87-9.6,11.68-10.46l37.69-5.54,16.79-33.92c2.54-5.14,7.88-7.98,13.22-8.06s11.15,2.65,13.76,7.92l16.84,34.04,37.93,5.62c5.65.84,9.78,5.43,11.3,9.97,1.97,5.86.54,11.83-3.75,16.02l-26.75,26.11,6.32,36.83c1.01,5.92-1.51,11.56-6.04,14.87s-10.83,4.1-16.15,1.31l-33.14-17.42ZM279.72,162.71l33.69,17.6-6.51-38.44c-.44-3.66.85-6.95,3.53-9.43l27.18-26.61-37.69-5.55c-3.37-.5-6.22-2.02-8.03-4.94l-17.65-35.65-17.26,34.86c-1.64,3.08-4.31,5.03-7.77,5.62l-38.37,5.68,26.85,26.26c3.21,2.73,4.53,6.65,3.71,10.78l-6.36,37.51,34.38-18.01c3.27-1.71,6.91-1.46,10.31.32Z"/>
      <path d="M91.79,287.39c5.48-1.14,10.32,2.41,11.36,7.42s-2.21,10.32-7.6,11.35c-4.87.93-9.91-2.07-11.11-7.24-1.14-4.89,1.73-10.36,7.34-11.53Z"/>
    </g>
  </g>
</svg>